<svg width="40" height="40" viewBox="0 0 40 40" fill="none" xmlns="http://www.w3.org/2000/svg">
<path d="M20.0002 25.9617L14.1027 20.0642L15.2822 18.8654L19.1668 22.75V8.33333H20.8335V22.75L24.7181 18.8654L25.8977 20.0642L20.0002 25.9617ZM11.026 31.6667C10.2588 31.6667 9.61822 31.4097 9.10433 30.8958C8.59044 30.3819 8.3335 29.7414 8.3335 28.9742V24.9358H10.0002V28.9742C10.0002 29.2308 10.107 29.466 10.3206 29.6796C10.5342 29.8932 10.7693 30 11.026 30H28.9743C29.231 30 29.4661 29.8932 29.6797 29.6796C29.8934 29.466 30.0002 29.2308 30.0002 28.9742V24.9358H31.6668V28.9742C31.6668 29.7414 31.4099 30.3819 30.896 30.8958C30.3821 31.4097 29.7416 31.6667 28.9743 31.6667H11.026Z" fill="white"/>
</svg>
