<svg width="58" height="58" viewBox="0 0 58 58" fill="none" xmlns="http://www.w3.org/2000/svg">
<g clip-path="url(#clip0_71_43)">
<path d="M52.7499 3.02456C51.9341 4.97273 50.8992 6.82273 49.6528 8.52171C44.1987 3.06987 36.7958 0.00415039 29.0831 0.00415039C13.1289 0.00415039 0 13.1429 0 29.1134C0 37.0797 3.26335 44.7062 9.03464 50.2034L10.1073 51.1548C15.3498 55.5722 21.9898 58.0036 28.8414 58.0036C44.0099 58.0036 56.7611 46.1183 57.8414 30.9709C58.6345 23.5558 56.459 14.1774 52.7499 3.02456ZM13.1667 50.3695C12.6984 50.9509 11.9807 51.2907 11.2329 51.2907C9.86559 51.2907 8.74759 50.1656 8.74759 48.7989C8.74759 47.4322 9.87314 46.3071 11.2329 46.3071C11.7994 46.3071 12.3584 46.5034 12.7966 46.8658C13.8617 47.7267 14.0279 49.3048 13.1667 50.3695ZM52.6291 41.6556C45.4527 51.2228 30.1256 47.9985 20.2977 48.4591C20.2977 48.4591 18.5527 48.5648 16.8002 48.8518C16.8002 48.8518 17.4574 48.5724 18.311 48.2477C25.2079 45.8464 28.4712 45.3783 32.6637 43.2262C40.5577 39.2091 48.361 30.4197 49.9852 21.2754C46.9786 30.0723 37.8685 37.6309 29.5666 40.7042C23.8784 42.8034 13.6048 44.8422 13.6048 44.8422L13.1894 44.6232C6.19432 41.2177 5.98281 26.0627 18.6963 21.1697C24.2636 19.0252 29.5892 20.2032 35.6022 18.7685C42.0232 17.2431 49.4488 12.4256 52.4704 6.14314C55.8546 16.1936 59.9263 31.9299 52.6291 41.6556Z" fill="#888888"/>
</g>
<defs>
<clipPath id="clip0_71_43">
<rect width="58" height="58" fill="white"/>
</clipPath>
</defs>
</svg>
