<svg width="63" height="93" viewBox="0 0 63 93" fill="none" xmlns="http://www.w3.org/2000/svg">
<path fill-rule="evenodd" clip-rule="evenodd" d="M20.1324 71.6572C20.1324 71.6572 16.895 73.7059 22.4388 74.398C29.1568 75.2323 32.5882 75.1123 39.989 73.5897C39.989 73.5897 41.9374 74.9165 44.6573 76.0644C28.0619 83.7981 7.09929 75.617 20.1324 71.6572ZM18.1038 61.5649C18.1038 61.5649 14.4719 64.4885 20.0206 65.1126C27.1971 65.9186 32.8617 65.9844 42.6701 63.9318C42.6701 63.9318 44.0244 65.4269 46.1557 66.2436C26.0938 72.6253 3.75013 66.746 18.1038 61.5649Z" fill="#888888"/>
<path fill-rule="evenodd" clip-rule="evenodd" d="M35.1976 44.4431C39.2886 49.5645 34.1253 54.1705 34.1253 54.1705C34.1253 54.1705 44.5082 48.3425 39.7394 41.0415C35.2869 34.2361 31.8717 30.8552 50.3585 19.196C50.3585 19.196 21.339 27.0751 35.1976 44.4431Z" fill="#666666"/>
<path fill-rule="evenodd" clip-rule="evenodd" d="M57.1454 79.1225C57.1454 79.1225 59.5418 81.2715 54.5057 82.9332C44.9294 86.0878 14.6407 87.0391 6.22737 83.0587C3.20518 81.6271 8.87548 79.6426 10.6594 79.2235C12.52 78.7861 13.5817 78.8656 13.5817 78.8656C10.2185 76.29 -8.1572 83.9243 4.24938 86.1145C38.0799 92.0803 65.9194 83.4288 57.1454 79.1225ZM21.6899 51.1072C21.6899 51.1072 6.28503 55.0876 16.2355 56.5345C20.4383 57.1455 28.8101 57.0048 36.6145 56.2929C42.9908 55.7109 49.3909 54.4659 49.3909 54.4659C49.3909 54.4659 47.1443 55.5143 45.5165 56.7211C29.8705 61.1971 -0.350001 59.1124 8.35092 54.537C15.7074 50.6667 21.6899 51.1072 21.6899 51.1072ZM49.327 67.9061C65.2304 58.9205 57.8774 50.2835 52.7436 51.4475C51.4885 51.7327 50.9252 51.979 50.9252 51.979C50.9252 51.979 51.3935 51.1821 52.2837 50.8395C62.4381 46.9585 70.246 62.2892 49.0098 68.3604C49.0091 68.3604 49.2538 68.1203 49.327 67.9061Z" fill="#888888"/>
<path fill-rule="evenodd" clip-rule="evenodd" d="M39.7393 0.364502C39.7393 0.364502 48.545 9.94742 31.3851 24.6786C17.6235 36.4999 28.2476 43.238 31.3809 50.9396C23.3465 43.0575 17.4533 36.1175 21.4065 29.66C27.2104 20.1811 43.2924 15.5843 39.7393 0.364502Z" fill="#666666"/>
<path fill-rule="evenodd" clip-rule="evenodd" d="M23.2544 92.2629C38.5173 93.3243 61.96 91.6733 62.5162 83.8171C62.5162 83.8171 61.4488 86.795 49.9007 89.1573C36.8719 91.8247 20.7997 91.5142 11.2704 89.8035C11.2704 89.8035 13.2231 91.5609 23.2544 92.2629Z" fill="#888888"/>
</svg>
