<svg width="152" height="33" viewBox="0 0 152 33" fill="none" xmlns="http://www.w3.org/2000/svg">
<path d="M103.771 0.583649H113.109V13.1537H124.288V0.583649H133.625V32.0537H124.288V20.3366H113.109V32.0537H103.771V0.583649Z" fill="#222222"/>
<path d="M94.1337 12.0313C93.146 10.7145 91.9788 9.68194 90.632 8.93372C89.2852 8.15557 87.9534 7.7665 86.6365 7.7665C85.589 7.7665 84.6014 7.976 83.6736 8.395C82.7757 8.81401 81.9826 9.39762 81.2942 10.1458C80.6059 10.8941 80.0672 11.7769 79.6781 12.7945C79.3189 13.8121 79.1394 14.9195 79.1394 16.1166C79.1394 17.3138 79.3189 18.4361 79.6781 19.4836C80.0672 20.5012 80.6059 21.3841 81.2942 22.1323C81.9826 22.8805 82.7757 23.4641 83.6736 23.8831C84.6014 24.3021 85.589 24.5116 86.6365 24.5116C87.8636 24.5116 89.1505 24.1824 90.4973 23.524C91.874 22.8356 93.0861 21.9377 94.1337 20.8304L99.5208 26.5767C98.3835 27.8038 97.0816 28.8812 95.6151 29.809C94.1486 30.7368 92.6073 31.4551 90.9911 31.9639C89.375 32.4427 87.7738 32.6822 86.1876 32.6822C83.7634 32.6822 81.5486 32.2781 79.5434 31.47C77.5382 30.632 75.7874 29.4798 74.2909 28.0133C72.7945 26.5468 71.6273 24.8109 70.7893 22.8057C69.9812 20.7705 69.5771 18.5708 69.5771 16.2064C69.5771 13.872 69.9961 11.7321 70.8341 9.78669C71.6722 7.81139 72.8543 6.09049 74.3807 4.62399C75.937 3.15748 77.7327 2.02019 79.7679 1.21211C81.833 0.404038 84.0776 0 86.5018 0C88.118 0 89.7192 0.23943 91.3054 0.71829C92.8916 1.16722 94.388 1.81069 95.7947 2.64869C97.2313 3.48669 98.4733 4.47434 99.5208 5.61163L94.1337 12.0313Z" fill="#222222"/>
<path d="M40.8477 0.583649H68.5018V8.0359H59.3436V32.0537H49.961V8.0359H40.8477V0.583649Z" fill="#222222"/>
<path d="M27.1814 0.583649H36.5192V32.0537H27.1814V0.583649Z" fill="#222222"/>
<path d="M0 0.583649H9.33776V24.2423H22.5363V32.0537H0V0.583649Z" fill="#222222"/>
<path fill-rule="evenodd" clip-rule="evenodd" d="M149.672 0.583649H140.335V24.4018C140.715 23.6715 141.208 22.9957 141.812 22.3733C143.43 20.7061 145.458 19.8951 147.874 19.8951C148.497 19.8951 149.096 19.9504 149.672 20.0605V0.583649Z" fill="#222222"/>
<path d="M144.05 28.5464C144.05 27.4181 144.427 26.4761 145.17 25.7101C145.914 24.9441 146.846 24.5715 147.956 24.5715C149.066 24.5715 150.018 24.9545 150.811 25.7101C151.604 26.4761 152 27.4181 152 28.5464C152 29.6747 151.604 30.658 150.811 31.4033C150.018 32.1486 149.066 32.5213 147.956 32.5213C146.846 32.5213 145.914 32.1486 145.17 31.4033C144.427 30.658 144.05 29.7057 144.05 28.5464Z" fill="#1364A2"/>
</svg>
