<svg width="55" height="55" viewBox="0 0 55 55" fill="none" xmlns="http://www.w3.org/2000/svg">
<path d="M23.2604 35.0625L35.0625 27.5L23.2604 19.9375V35.0625ZM27.5097 47.4375C24.7532 47.4375 22.1612 46.9144 19.7335 45.8683C17.3059 44.8221 15.1943 43.4023 13.3988 41.6086C11.6029 39.815 10.1813 37.7061 9.13401 35.2819C8.08634 32.8573 7.5625 30.2666 7.5625 27.5097C7.5625 24.7532 8.08557 22.1612 9.13172 19.7335C10.1779 17.3059 11.5977 15.1943 13.3914 13.3988C15.185 11.6029 17.2939 10.1813 19.7181 9.13401C22.1427 8.08634 24.7334 7.5625 27.4903 7.5625C30.2468 7.5625 32.8388 8.08557 35.2665 9.13172C37.6941 10.1779 39.8057 11.5977 41.6012 13.3914C43.3971 15.185 44.8187 17.2939 45.866 19.7181C46.9137 22.1427 47.4375 24.7334 47.4375 27.4903C47.4375 30.2468 46.9144 32.8388 45.8683 35.2665C44.8221 37.6941 43.4023 39.8057 41.6086 41.6012C39.815 43.3971 37.7061 44.8187 35.2819 45.866C32.8573 46.9137 30.2666 47.4375 27.5097 47.4375ZM27.5 45.8333C32.6181 45.8333 36.9531 44.0573 40.5052 40.5052C44.0573 36.9531 45.8333 32.6181 45.8333 27.5C45.8333 22.3819 44.0573 18.0469 40.5052 14.4948C36.9531 10.9427 32.6181 9.16667 27.5 9.16667C22.3819 9.16667 18.0469 10.9427 14.4948 14.4948C10.9427 18.0469 9.16667 22.3819 9.16667 27.5C9.16667 32.6181 10.9427 36.9531 14.4948 40.5052C18.0469 44.0573 22.3819 45.8333 27.5 45.8333Z" fill="#222222"/>
</svg>
