<svg width="62" height="69" viewBox="0 0 62 69" fill="none" xmlns="http://www.w3.org/2000/svg">
<g clip-path="url(#clip0_70_22)">
<path fill-rule="evenodd" clip-rule="evenodd" d="M36.952 7.89749L51.2764 16.079C51.6798 15.6564 52.1509 15.2832 52.6854 14.9761C55.6562 13.2867 59.4454 14.2898 61.171 17.2287C62.8788 20.1676 61.8648 23.916 58.8939 25.623C58.3635 25.9246 57.8065 26.1404 57.2395 26.2747V42.6442C57.8004 42.7787 58.3513 42.9932 58.8762 43.2916C61.8648 44.9986 62.8788 48.7471 61.1532 51.686C59.4454 54.6249 55.6385 55.628 52.6676 53.9385C52.0761 53.6022 51.5622 53.1835 51.1319 52.7055L36.8949 60.8371C37.0984 61.4455 37.2085 62.0962 37.2085 62.7728C37.2085 66.1517 34.4334 68.9146 31 68.9146C27.5666 68.9146 24.7915 66.1693 24.7915 62.7728C24.7915 62.1691 24.8791 61.586 25.0426 61.0351L10.722 52.8558C10.323 53.2701 9.85834 53.6363 9.33239 53.9385C6.34375 55.628 2.55458 54.6249 0.846792 51.686C-0.861 48.7471 0.153002 44.9986 3.12385 43.2916C3.64912 42.9929 4.19998 42.7784 4.76048 42.6438V26.2747C4.19349 26.1404 3.63645 25.9246 3.10606 25.623C0.135212 23.9336 -0.878789 20.1676 0.829003 17.2287C2.5368 14.2898 6.34375 13.2867 9.3146 14.9761C9.84617 15.2815 10.3151 15.6523 10.717 16.0721L25.0453 7.88839C24.8801 7.33495 24.7915 6.74876 24.7915 6.14178C24.7915 2.74532 27.5666 0 31 0C34.4334 0 37.2085 2.74532 37.2085 6.14178C37.2085 6.75209 37.1189 7.34138 36.952 7.89749ZM35.4596 10.4182L49.8181 18.6193C49.3743 20.1613 49.5372 21.8712 50.4083 23.3704C51.2824 24.8745 52.7062 25.8716 54.2865 26.2602V42.6501C54.2059 42.6697 54.1258 42.6908 54.0461 42.7135L35.2928 10.5821C35.3494 10.5285 35.405 10.4739 35.4596 10.4182ZM26.7111 10.5858L7.95812 42.7167C7.87704 42.6934 7.7955 42.6717 7.71354 42.6517V26.2602C9.29376 25.8716 10.7176 24.8745 11.5917 23.3704C12.4646 21.8683 12.6264 20.1546 12.1793 18.6101L26.5338 10.4114C26.5917 10.4707 26.6508 10.5288 26.7111 10.5858ZM32.7347 12.0414L51.4834 44.165C51.0638 44.5608 50.694 45.0219 50.3906 45.5442C50.0889 46.0634 49.8721 46.6084 49.7361 47.1632H12.2643C12.1283 46.6087 11.9114 46.0638 11.6094 45.5442C11.3047 45.0253 10.9357 44.5667 10.5182 44.1726L29.2705 12.0429C29.8193 12.1996 30.3996 12.2836 31 12.2836C31.6023 12.2836 32.1844 12.1991 32.7347 12.0414ZM35.5914 58.6351L49.8567 50.4874C49.8139 50.3544 49.7757 50.22 49.7421 50.0845H12.2563C12.2364 50.1641 12.215 50.2434 12.1919 50.3222L26.5272 58.5099C27.6559 57.3511 29.2417 56.6311 31 56.6311C32.8209 56.6311 34.4566 57.4032 35.5914 58.6351Z" fill="#888888"/>
</g>
<defs>
<clipPath id="clip0_70_22">
<rect width="62" height="69" fill="white"/>
</clipPath>
</defs>
</svg>
