<svg width="132" height="80" viewBox="0 0 132 80" fill="none" xmlns="http://www.w3.org/2000/svg">
<g clip-path="url(#clip0_70_25)">
<path d="M31.2091 20.8845H56.0527V22.857H33.487V37.7005H54.7069V39.673H33.487V55.9699H56.3114V57.9423H31.2091V20.8845ZM58.278 20.8845H60.918L72.6152 37.1814L84.571 20.8845L100.833 0.184082L74.1162 38.8943L87.8835 57.9423H85.14L72.6152 40.6072L60.0386 57.9423H57.3469L71.2176 38.8943L58.278 20.8845ZM88.8672 22.857V20.8845H117.178V22.857H104.136V57.9414H101.858V22.857H88.8672ZM0.129333 20.8845H2.97625L42.2293 79.5539L26.0076 57.9423L2.50979 23.6872L2.40633 57.9423H0.129333V20.8845ZM116.949 55.3743C116.483 55.3743 116.134 55.0143 116.134 54.5494C116.134 54.0836 116.483 53.7236 116.948 53.7236C117.419 53.7236 117.763 54.0836 117.763 54.5494C117.763 55.0143 117.419 55.3743 116.948 55.3743H116.949ZM119.186 53.2027H120.405C120.422 53.8623 120.905 54.305 121.613 54.305C122.405 54.305 122.854 53.8294 122.854 52.937V47.2872H124.094V52.9423C124.094 54.5494 123.164 55.4747 121.624 55.4747C120.179 55.4747 119.187 54.577 119.187 53.2027H119.186ZM125.717 53.1316H126.947C127.052 53.8899 127.794 54.3716 128.863 54.3716C129.859 54.3716 130.591 53.8561 130.591 53.1476C130.591 52.5387 130.126 52.1725 129.067 51.9236L128.037 51.6747C126.592 51.337 125.932 50.6383 125.932 49.4641C125.932 48.0401 127.095 47.0925 128.84 47.0925C130.463 47.0925 131.649 48.0401 131.721 49.3859H130.513C130.397 48.6499 129.755 48.1894 128.824 48.1894C127.843 48.1894 127.19 48.6605 127.19 49.3805C127.19 49.9512 127.611 50.2783 128.653 50.5219L129.533 50.7379C131.172 51.1201 131.848 51.785 131.848 52.9867C131.848 54.5156 130.662 55.4747 128.769 55.4747C126.996 55.4747 125.805 54.561 125.717 53.1316Z" fill="#888888"/>
</g>
<defs>
<clipPath id="clip0_70_25">
<rect width="132" height="80" fill="white"/>
</clipPath>
</defs>
</svg>
