<svg width="47" height="62" viewBox="0 0 47 62" fill="none" xmlns="http://www.w3.org/2000/svg">
<path d="M43.7134 8.38839C38.5031 0.278168 28.2124 -2.12738 20.7722 3.02971L7.70544 12.0874C4.1359 14.5295 1.67728 18.4938 0.932587 23.008C0.309273 26.7684 0.857034 30.6474 2.48916 34.0311C1.37043 35.8763 0.607572 37.9491 0.246735 40.1242C-0.505395 44.7251 0.478257 49.4615 2.97561 53.2641C8.18589 61.3754 18.4772 63.7798 25.9163 58.6227L38.9836 49.565C42.5532 47.123 45.0118 43.1587 45.7564 38.6444C46.3794 34.8839 45.8319 31.0049 44.2004 27.6208C45.3185 25.7756 46.081 23.703 46.4418 21.5282C47.1945 16.9274 46.2113 12.1907 43.7134 8.38839Z" fill="#888888"/>
<path d="M19.4957 54.0274C15.2837 55.2182 10.8359 53.425 8.3552 49.5362C6.85363 47.2498 6.26205 44.4021 6.71397 41.6357C6.78968 41.1861 6.89397 40.7428 7.02608 40.309L7.27207 39.4917L7.94189 40.0262C9.48738 41.2621 11.2156 42.2018 13.052 42.805L13.5374 42.9652L13.4928 43.4926C13.4334 44.2425 13.6201 44.9911 14.0199 45.6055C14.7668 46.7779 16.1072 47.3186 17.3765 46.9595C17.66 46.8775 17.9303 46.7489 18.1781 46.5781L31.2458 37.5177C31.8922 37.0749 32.3377 36.3569 32.4732 35.5393C32.6086 34.7054 32.4303 33.8472 31.9783 33.1577C31.2312 31.9854 29.8911 31.4444 28.6217 31.8026C28.3381 31.8845 28.0678 32.0132 27.8201 32.184L22.8332 35.6412C22.0127 36.2083 21.1173 36.6356 20.178 36.9085C15.966 38.0992 11.5182 36.3061 9.03755 32.4172C7.53554 30.1311 6.94375 27.2832 7.39581 24.5168C7.84494 21.8019 9.32501 19.4184 11.4728 17.9512L24.5391 8.89405C25.3594 8.32612 26.2549 7.89817 27.1943 7.62507C31.4064 6.43418 35.8542 8.22734 38.3348 12.1163C39.8365 14.4026 40.4283 17.2504 39.9765 20.0168C39.8998 20.467 39.7948 20.911 39.6624 21.3457L39.4164 22.163L38.7471 21.6296C37.2017 20.3936 35.4735 19.4538 33.637 18.8508L33.1511 18.6906L33.1962 18.1632C33.255 17.4133 33.0683 16.665 32.6691 16.0502C31.9225 14.879 30.5835 14.3384 29.315 14.6963C29.0315 14.7782 28.7612 14.9068 28.5134 15.0777L15.4442 24.1348C14.7979 24.5774 14.3525 25.2952 14.2173 26.1127C14.0812 26.9466 14.2592 27.8051 14.7112 28.4948C15.4584 29.6669 16.7984 30.2079 18.0678 29.8499C18.3513 29.7677 18.6216 29.6391 18.8694 29.4685L23.8553 26.013C24.6755 25.445 25.571 25.0172 26.5105 24.7445C30.7212 23.5542 35.1677 25.3461 37.6484 29.2331C39.1505 31.5192 39.7422 34.3671 39.2902 37.1335C38.8421 39.8483 37.3636 42.2323 35.2172 43.7013L22.1509 52.7584C21.3306 53.3265 20.4351 53.7544 19.4957 54.0274Z" fill="#EFEFEF"/>
</svg>
